<svg xmlns="http://www.w3.org/2000/svg" width="1692px" height="252px" viewBox="0 0 1692 252" preserveAspectRatio="xMidYMid meet"><g fill="#716f70"><path d="M467.1 244.9 c-4.9 -1.5 -7.7 -3.6 -10 -7.5 -2.1 -3.4 -2.1 -4.8 -2.1 -62.8 0 -55.6 0.1 -59.7 1.9 -65.2 2.6 -8.1 4.2 -10.9 9.9 -17.4 5.2 -5.9 12.2 -10.2 20.7 -12.7 8.2 -2.4 41.1 -2.9 51.9 -0.8 15.2 3 24.6 9.4 31.3 21.3 5.2 9.3 6.2 15.1 6.3 36.2 0 15.2 -0.3 19.7 -1.9 25 -3.2 11.1 -4.2 12.9 -11.6 20.5 -6.5 6.5 -15.5 10.9 -26 12.5 -7 1.1 -35.1 1 -46 -0.2 l-3 -0.3 -0.5 21 c-0.6 23.7 -1 25.4 -7.4 28.4 -5.5 2.6 -9.4 3.1 -13.5 2z m68.3 -84.6 c2.8 -0.4 4.3 -1.4 5.7 -3.7 1.8 -2.8 2 -4.8 1.7 -21.8 -0.3 -20.6 -0.3 -20.5 -6.7 -22.7 -4.3 -1.4 -35.3 -1.5 -40.4 0 -6.4 1.7 -7.2 4 -7.5 22.5 -0.3 14.5 -0.2 16.7 1.6 20.7 1.7 3.9 2.5 4.6 5.4 5 5.6 0.7 36.1 0.7 40.2 0z"></path><path d="M23.7 193.4 c-3.8 -2 -5.2 -3.4 -6.8 -7.1 -1.9 -4.4 -2 -6.6 -1.7 -47.2 0.3 -42.4 0.3 -42.6 2.6 -47.1 3.5 -6.7 8.6 -10.8 16.4 -13.1 6.3 -2 8.6 -2.1 36 -1.6 30.3 0.5 34.3 1 42.7 5.3 8.1 4.1 15.5 12 20 21.4 l3.6 7.5 0 36.6 0 36.6 -2.9 3.7 c-1.6 2.2 -4.9 4.7 -7.5 5.9 -4 1.7 -5.1 1.9 -9.1 0.8 -5.8 -1.5 -9 -3.8 -11.7 -8.7 -2.2 -3.8 -2.3 -4.6 -2.3 -36.2 0 -36.4 0.1 -36.1 -7.3 -38.1 -2.8 -0.8 -10.3 -1.1 -21.7 -0.9 -19.1 0.3 -22.8 1.2 -24.1 5.8 -0.4 1.4 -0.7 16.3 -0.8 33.1 -0.1 20 -0.5 31.8 -1.2 34 -1.5 4.4 -4.4 7.6 -9.1 10 -4.9 2.5 -9.3 2.3 -15.1 -0.7z"></path><path d="M842.7 194.4 c-3.7 -2 -6.2 -4.6 -8.1 -8.3 -1.4 -2.6 -1.6 -9.4 -1.6 -49.6 0 -52.4 -0.2 -51.2 7.3 -56.6 7.6 -5.5 18.9 -3.2 23.6 4.7 2 3.4 2.1 4.8 2.1 52 l0 48.5 -2.7 3.5 c-5 6.7 -14.3 9.2 -20.6 5.8z"></path><path d="M202.9 193.6 c-16.6 -3 -28.4 -13.3 -34.6 -30.1 -1.6 -4.3 -1.8 -8.1 -1.8 -28 0.1 -22.9 0.1 -23 2.9 -29.8 3.2 -7.7 7.5 -13.3 14.4 -18.6 10 -7.8 19.8 -10.1 43.7 -10.1 33.1 0 48 6.6 56.9 25 2.9 6.2 3.1 7.1 3.1 18.6 0 11.7 -0.1 12.2 -3 16.8 -1.8 3 -4.8 5.9 -7.5 7.5 l-4.5 2.6 -36.3 0.3 -36.3 0.3 0.3 5.2 c0.3 4.8 0.6 5.3 3.8 6.9 5.4 2.7 41.9 2.6 55.3 -0.2 13.3 -2.7 18 -1.2 22.3 7.1 2.3 4.5 1.6 13.5 -1.5 17.7 -2.7 3.8 -8.6 7.1 -15.6 8.9 -6.6 1.6 -52.5 1.5 -61.6 -0.1z m51.9 -75 c0.2 -1.5 -0.2 -4.1 -0.8 -5.6 -1.6 -4 -9.6 -5.5 -28 -5.4 -17.4 0.1 -24.7 1.5 -26.1 5.1 -1 2.6 -1.2 7.6 -0.4 8.5 0.3 0.2 12.8 0.4 27.7 0.4 l27.3 -0.1 0.3 -2.9z"></path><path d="M340 193.5 c-4.7 -0.7 -9.8 -1.9 -11.5 -2.7 -14.3 -6.5 -21.1 -18.1 -20.4 -35.1 0.8 -18.1 11.1 -28.1 32 -31.2 8.7 -1.3 32 -2.9 49.7 -3.4 l4.2 -0.1 0 -4.5 c0 -6.7 -0.9 -6.9 -25 -7.3 -16.7 -0.2 -21.5 0 -26 1.3 -9.2 2.8 -12.1 2.8 -16.5 0.3 -4.4 -2.5 -8.5 -9.3 -8.5 -14.1 0 -7.3 6.7 -14.1 17.4 -17.5 6.8 -2.2 49.8 -2.5 59.1 -0.3 14.5 3.2 25.5 12.1 30.7 24.6 3.5 8.5 4.3 14.8 4.3 35 0 25 -1.6 32.6 -8.7 41.7 -3 3.9 -11 9.8 -13.2 9.8 -0.6 0 -1.7 0.5 -2.3 1.1 -3.5 3.5 -47.1 5.2 -65.3 2.4z m53.5 -32.5 c1.2 -1.4 2 -4.1 2.3 -8.1 l0.4 -6 -8.3 0.5 c-4.6 0.4 -12.9 0.8 -18.4 1.1 -26.5 1.3 -29.5 2.1 -29.5 8 0 6.4 0.4 6.5 27.4 6.5 23.2 0 24.4 -0.1 26.1 -2z"></path><path d="M637.5 193.6 c-18.3 -3.2 -32.8 -18 -35.7 -36.5 -0.6 -3.7 -0.8 -15.1 -0.6 -26.1 0.4 -17.7 0.7 -20 2.8 -25 6.1 -14.1 17 -23.5 31.6 -27 7.8 -2 46.8 -2.1 53.4 -0.2 10.9 3.1 20.9 10 25.8 17.6 7.7 12 7.6 11.5 7.7 39.6 l0 25.5 -3.3 6.8 c-6.7 14.2 -19.1 23.3 -34.5 25.6 -9.9 1.4 -38.1 1.2 -47.2 -0.3z m48.9 -35.5 l2.6 -2.4 0 -18.6 c0 -20.8 -0.5 -22.9 -6 -24.8 -4.8 -1.6 -37.3 -1.6 -42 0.1 -5.5 2 -6 3.9 -6 24.7 0 25.3 -1.8 23.8 29.2 23.6 19.3 -0.2 19.7 -0.2 22.2 -2.6z"></path><path d="M773.6 193 c-6 -2.3 -11.6 -6.1 -11.6 -7.7 0 -0.7 -0.4 -1.3 -1 -1.3 -1.3 0 -4.5 -6.5 -6.5 -13.3 -1.5 -5.2 -1.7 -12.8 -1.7 -67.7 -0.1 -57.6 0.1 -62.2 1.7 -64.7 2.8 -4.2 6.1 -6.8 10.4 -8.3 5.8 -1.9 10.2 -0.6 15.8 4.4 l4.8 4.4 0.5 60.8 0.5 60.9 4.1 2 c8.2 3.9 11.4 8.5 11.4 16.3 0 6 -4.3 12.6 -9.5 14.8 -4.7 1.9 -13 1.7 -18.9 -0.6z"></path><path d="M914 193.6 c-8.1 -1.5 -13.4 -4.7 -16.7 -10 -4.5 -7.1 -2.9 -15.9 3.7 -20.6 4.6 -3.3 9.9 -3.6 17.8 -1.1 6.4 2.1 8.3 2.2 32.4 1.9 28.9 -0.3 29.1 -0.4 28.6 -7.2 -0.5 -6.3 -1.7 -6.6 -27.8 -6.6 -13.9 -0.1 -25.2 -0.6 -29.5 -1.4 -17.5 -3.3 -26.6 -11.5 -29.6 -26.8 -1 -5.2 -0.9 -9.4 0.5 -18.9 1.1 -7.1 9.4 -17.7 16.6 -21 9.5 -4.4 16 -5 47.5 -4.7 l30 0.3 5.8 2.7 c11.2 5.3 14.8 13.3 10.2 22.6 -3.4 6.7 -12.5 9.2 -20.8 5.7 -2.9 -1.2 -8.7 -1.5 -28.4 -1.5 -28.4 0 -29.3 0.2 -29.3 6.9 0 6.5 0 6.5 31.9 7.2 30.5 0.7 32.9 1.1 42.3 6.6 4.4 2.6 9.5 9.4 11.7 15.5 2.2 6.2 2.1 20.8 -0.3 28.2 -1.4 4.7 -3.1 7.1 -8.2 12.2 -3.5 3.5 -7.2 6.4 -8.2 6.4 -1 0 -2.3 0.5 -2.9 1.1 -3.6 3.6 -61.5 5.5 -77.3 2.5z"></path><path d="M841.4 62.5 c-6.9 -3.5 -9.9 -8.2 -9.9 -15.6 0.1 -4.6 0.6 -6.3 2.9 -9.4 7.3 -9.5 17.9 -10.7 26.2 -3 9.3 8.7 6 23.9 -6.2 29 -5 2.1 -7.2 1.9 -13 -1z"></path><path d="M378.5 62.8 c-1.6 -0.6 -3.3 -1.5 -3.6 -2.1 -0.4 -0.5 -2.5 -2.1 -4.7 -3.6 -5.4 -3.5 -18.7 -13.7 -21.5 -16.5 -5.1 -5.1 -5.9 -11 -2.4 -16.8 4 -6.6 8.1 -8.6 16.8 -8 5.8 0.4 31.9 30.5 31.9 36.8 0 3 -3.6 8.2 -6.9 9.9 -3.4 1.7 -5.4 1.8 -9.6 0.3z"></path></g><g fill="#1fa6e0"><path d="M1113.5 203.1 c-5.8 -1 -16.4 -6.4 -20.8 -10.5 -5.8 -5.5 -10.3 -14.1 -12.2 -23.2 -1.4 -6.9 -1.6 -14.3 -1.2 -53 0.4 -47 0.4 -47.3 5.1 -57.8 2.3 -5.1 13.1 -15.9 18.2 -18.2 9 -4 12.8 -4.6 33.1 -5.1 22.4 -0.6 31.2 0.6 40.7 5.4 10.3 5.2 18.8 16.4 21.5 28.3 0.7 2.8 1 22.7 0.8 53.5 l-0.2 49 -3.1 7.2 c-4.2 9.7 -10.7 16.4 -20.4 21.1 l-7.5 3.7 -25 0.2 c-13.7 0.1 -26.8 -0.2 -29 -0.6z" style="fill: rgb(150, 202, 223);"></path><path d="M1276.5 203.1 c-10.8 -1.9 -24.4 -11.7 -28.6 -20.5 -5.4 -11.8 -5.2 -9.7 -5.5 -60.1 -0.3 -59.1 0.1 -61.2 13.1 -74.1 10.4 -10.5 16.6 -12.4 42.7 -13.1 15.9 -0.4 21.2 -0.2 27.9 1.2 18 3.6 28.7 13 33.8 29.9 2 6.5 2.1 9 2.1 53.5 0 42.6 -0.2 47.2 -1.9 53.2 -1 3.6 -2.6 8.1 -3.6 10 -2.9 5.6 -12 13.8 -19.3 17.2 l-6.7 3.1 -25 0.2 c-13.7 0.1 -26.8 -0.1 -29 -0.5z" style="fill: rgb(26, 140, 174);"></path><path d="M1430.6 202.9 c-2.7 -0.4 -5.4 -1.3 -5.9 -1.8 -0.6 -0.6 -1.7 -1.1 -2.3 -1.1 -4.5 0 -16.7 -11.8 -20.4 -19.6 -3.8 -8.3 -4.1 -13.5 -3.8 -64.2 0.4 -45.2 0.5 -49 2.3 -53.2 5.6 -13.1 13.5 -20.4 27.4 -25.2 6.1 -2.1 8.3 -2.3 29.1 -2.3 19.4 0 23.4 0.3 29 1.9 15.8 4.7 26.4 15.8 29.6 31 1.9 8.9 1.9 95.8 0 103.8 -3.9 16.1 -16.6 28.3 -32.4 30.9 -6.9 1.1 -45.7 1 -52.6 -0.2z" style="fill: rgb(3, 152, 210);"></path><path d="M1592.9 203 c-10.7 -1.9 -22.7 -10.6 -28.2 -20.4 -5.3 -9.5 -5.7 -13.7 -5.7 -62.8 0 -41.2 0.2 -45.9 1.9 -51.8 2.6 -9.2 5.3 -14 11.1 -19.9 5.4 -5.5 10.4 -8.3 19 -10.9 8 -2.4 47.9 -2.4 56.1 0 15.1 4.4 24.1 13 29 27.6 2.2 6.5 2.2 7.9 2.3 54.2 0.1 51.1 -0.1 53.8 -5.3 63.9 -3.3 6.4 -11.3 13.7 -19 17.3 l-6.6 3.1 -25 0.3 c-13.7 0.1 -27.1 -0.1 -29.6 -0.6z" style="fill: rgb(29, 83, 147);"></path></g></svg>